<?xml version="1.0" encoding="UTF-8"?>
<!DOCTYPE svg PUBLIC "-//W3C//DTD SVG 1.1//EN" "http://www.w3.org/Graphics/SVG/1.1/DTD/svg11.dtd">
<svg xmlns="http://www.w3.org/2000/svg" version="1.1" width="646px" height="298px" style="shape-rendering:geometricPrecision; text-rendering:geometricPrecision; image-rendering:optimizeQuality; fill-rule:evenodd; clip-rule:evenodd" xmlns:xlink="http://www.w3.org/1999/xlink">
<g><path style="opacity:1" fill="#1a2b34" d="M 4.5,-0.5 C 216.5,-0.5 428.5,-0.5 640.5,-0.5C 642.167,1.16667 643.833,2.83333 645.5,4.5C 645.5,100.5 645.5,196.5 645.5,292.5C 643.833,294.167 642.167,295.833 640.5,297.5C 428.5,297.5 216.5,297.5 4.5,297.5C 2.83333,295.833 1.16667,294.167 -0.5,292.5C -0.5,196.5 -0.5,100.5 -0.5,4.5C 1.16667,2.83333 2.83333,1.16667 4.5,-0.5 Z"/></g>
<g><path style="opacity:1" fill="#fafafa" d="M 240.5,68.5 C 246.645,69.4902 252.978,69.8235 259.5,69.5C 259.5,73.8333 259.5,78.1667 259.5,82.5C 253.167,82.5 246.833,82.5 240.5,82.5C 240.333,101.17 240.5,119.836 241,138.5C 241.5,140.333 242.667,141.5 244.5,142C 249.537,142.663 254.537,142.496 259.5,141.5C 259.5,146.167 259.5,150.833 259.5,155.5C 252.189,156.469 244.856,156.636 237.5,156C 231.233,154.066 227.399,149.9 226,143.5C 225.5,123.169 225.333,102.836 225.5,82.5C 221.833,82.5 218.167,82.5 214.5,82.5C 214.5,78.1667 214.5,73.8333 214.5,69.5C 218.371,69.815 222.038,69.4816 225.5,68.5C 225.5,58.8333 225.5,49.1667 225.5,39.5C 230.5,39.5 235.5,39.5 240.5,39.5C 240.5,49.1667 240.5,58.8333 240.5,68.5 Z"/></g>
<g><path style="opacity:1" fill="#fafafa" d="M 307.5,65.5 C 314.508,65.3337 321.508,65.5004 328.5,66C 332.348,66.59 336.014,67.7567 339.5,69.5C 340.833,74.1667 340.833,78.8333 339.5,83.5C 327.187,78.4328 314.854,78.2661 302.5,83C 292.138,92.5802 288.305,104.414 291,118.5C 294.411,137.288 305.578,145.454 324.5,143C 330.584,141.27 336.584,139.604 342.5,138C 345.217,141.878 346.217,146.044 345.5,150.5C 332.815,157.173 319.482,159.006 305.5,156C 288.172,150.999 278.339,139.499 276,121.5C 272.776,103.888 276.943,88.3882 288.5,75C 294.378,70.7274 300.712,67.5607 307.5,65.5 Z"/></g>
<g><path style="opacity:1" fill="#f9f9fa" d="M 392.5,65.5 C 399.508,65.3337 406.508,65.5004 413.5,66C 417.647,66.7278 421.647,67.8944 425.5,69.5C 426.833,74.1667 426.833,78.8333 425.5,83.5C 386.026,72.4696 370.526,87.1363 379,127.5C 382.351,135.52 388.184,140.687 396.5,143C 407.787,144.543 418.287,142.376 428,136.5C 429.6,140.467 431.1,144.467 432.5,148.5C 432.182,149.647 431.516,150.481 430.5,151C 417.771,157.383 404.438,159.049 390.5,156C 373.732,150.561 364.232,139.061 362,121.5C 357.947,102.522 362.78,86.3556 376.5,73C 381.542,69.6426 386.876,67.1426 392.5,65.5 Z"/></g>
<g><path style="opacity:1" fill="#949ba0" d="M 240.5,68.5 C 247.167,68.5 253.833,68.5 260.5,68.5C 260.819,73.3633 260.486,78.03 259.5,82.5C 259.5,78.1667 259.5,73.8333 259.5,69.5C 252.978,69.8235 246.645,69.4902 240.5,68.5 Z"/></g>
<g><path style="opacity:1" fill="#818a8f" d="M 225.5,68.5 C 222.038,69.4816 218.371,69.815 214.5,69.5C 214.5,73.8333 214.5,78.1667 214.5,82.5C 213.514,78.03 213.181,73.3633 213.5,68.5C 217.5,68.5 221.5,68.5 225.5,68.5 Z"/></g>
<g><path style="opacity:1" fill="#fcfcfc" d="M 96.5,195.5 C 98.5,195.5 100.5,195.5 102.5,195.5C 102.334,202.175 102.5,208.842 103,215.5C 108.356,209.452 114.856,207.952 122.5,211C 125.106,212.938 126.939,215.438 128,218.5C 128.5,228.494 128.666,238.494 128.5,248.5C 126.5,248.5 124.5,248.5 122.5,248.5C 122.666,239.494 122.5,230.494 122,221.5C 118.685,214.131 113.518,212.631 106.5,217C 104.959,218.579 103.792,220.413 103,222.5C 102.5,231.16 102.334,239.827 102.5,248.5C 100.5,248.5 98.5,248.5 96.5,248.5C 96.5,230.833 96.5,213.167 96.5,195.5 Z"/></g>
<g><path style="opacity:1" fill="#eaebec" d="M 330.5,195.5 C 332.833,195.5 335.167,195.5 337.5,195.5C 337.5,213.167 337.5,230.833 337.5,248.5C 335.167,248.5 332.833,248.5 330.5,248.5C 330.5,230.833 330.5,213.167 330.5,195.5 Z"/></g>
<g><path style="opacity:1" fill="#fafbfb" d="M 483.5,195.5 C 485.5,195.5 487.5,195.5 489.5,195.5C 489.5,213.167 489.5,230.833 489.5,248.5C 487.5,248.5 485.5,248.5 483.5,248.5C 483.5,230.833 483.5,213.167 483.5,195.5 Z"/></g>
<g><path style="opacity:1" fill="#f4f5f5" d="M 552.5,195.5 C 552.17,202.2 552.503,208.866 553.5,215.5C 554.107,215.376 554.44,215.043 554.5,214.5C 555.771,212.066 557.771,210.566 560.5,210C 574.117,208.843 580.783,215.176 580.5,229C 581.013,243.154 574.346,249.821 560.5,249C 558.246,247.623 556.08,246.123 554,244.5C 553.51,245.793 553.343,247.127 553.5,248.5C 551.167,248.5 548.833,248.5 546.5,248.5C 546.5,230.833 546.5,213.167 546.5,195.5C 548.5,195.5 550.5,195.5 552.5,195.5 Z"/></g>
<g><path style="opacity:1" fill="#a0a7ab" d="M 552.5,195.5 C 553.167,201.833 553.833,208.167 554.5,214.5C 554.44,215.043 554.107,215.376 553.5,215.5C 552.503,208.866 552.17,202.2 552.5,195.5 Z"/></g>
<g><path style="opacity:1" fill="#818b8f" d="M 69.5,199.5 C 69.5,203.167 69.5,206.833 69.5,210.5C 67.8333,210.5 66.1667,210.5 64.5,210.5C 65.5676,209.566 66.901,209.232 68.5,209.5C 68.1872,205.958 68.5206,202.625 69.5,199.5 Z"/></g>
<g><path style="opacity:1" fill="#eef0f0" d="M 69.5,199.5 C 71.5,199.5 73.5,199.5 75.5,199.5C 75.5,203.167 75.5,206.833 75.5,210.5C 79.8333,210.5 84.1667,210.5 88.5,210.5C 88.5,212.167 88.5,213.833 88.5,215.5C 84.1667,215.5 79.8333,215.5 75.5,215.5C 75.2101,224.042 75.5435,232.542 76.5,241C 76.9054,241.945 77.572,242.612 78.5,243C 81.8168,243.498 85.1501,243.665 88.5,243.5C 88.5,245.167 88.5,246.833 88.5,248.5C 84.1539,248.666 79.8206,248.499 75.5,248C 72.2716,246.437 70.1049,243.937 69,240.5C 68.5003,232.173 68.3336,223.84 68.5,215.5C 67.1667,215.5 65.8333,215.5 64.5,215.5C 64.5,213.833 64.5,212.167 64.5,210.5C 66.1667,210.5 67.8333,210.5 69.5,210.5C 69.5,206.833 69.5,203.167 69.5,199.5 Z"/></g>
<g><path style="opacity:1" fill="#f4f5f5" d="M 173.5,230.5 C 163.833,230.5 154.167,230.5 144.5,230.5C 144.263,231.791 144.596,232.791 145.5,233.5C 147.932,242.056 153.598,245.556 162.5,244C 165.618,243.127 168.618,241.961 171.5,240.5C 172.938,242.998 172.604,245.164 170.5,247C 147.97,254.005 137.47,245.838 139,222.5C 145.442,208.735 155.275,205.735 168.5,213.5C 172.955,218.284 174.622,223.95 173.5,230.5 Z"/></g>
<g><path style="opacity:1" fill="#f1f2f2" d="M 217.5,209.5 C 222.998,209.068 228.331,209.735 233.5,211.5C 234.833,213.5 234.833,215.5 233.5,217.5C 220.598,210.786 212.932,214.453 210.5,228.5C 211.996,243.42 219.663,247.753 233.5,241.5C 234.466,243.396 234.799,245.396 234.5,247.5C 211.135,253.239 201.302,244.239 205,220.5C 207.537,214.785 211.704,211.118 217.5,209.5 Z"/></g>
<g><path style="opacity:1" fill="#f5f6f6" d="M 253.5,209.5 C 265.326,207.042 273.16,211.375 277,222.5C 279.05,232.149 276.55,240.316 269.5,247C 256.838,252.675 248.005,249.175 243,236.5C 239.914,224.706 243.414,215.706 253.5,209.5 Z"/></g>
<g><path style="opacity:1" fill="#f6f6f7" d="M 296.5,209.5 C 311.446,207.774 319.446,214.274 320.5,229C 319.394,245.78 310.727,252.114 294.5,248C 290.212,245.708 287.378,242.208 286,237.5C 282.569,225.263 286.069,215.93 296.5,209.5 Z"/></g>
<g><path style="opacity:1" fill="#f3f4f4" d="M 382.5,222.5 C 382.5,225.167 382.5,227.833 382.5,230.5C 372.985,230.173 363.652,230.506 354.5,231.5C 356.092,241.808 362.092,245.975 372.5,244C 375.405,242.963 378.239,241.796 381,240.5C 381.808,242.579 381.641,244.579 380.5,246.5C 371.187,250.873 362.187,250.373 353.5,245C 346.523,236.118 345.69,226.618 351,216.5C 358.35,209.037 366.85,207.537 376.5,212C 379.428,215.029 381.428,218.529 382.5,222.5 Z"/></g>
<g><path style="opacity:1" fill="#fcfcfc" d="M 406.5,209.5 C 409.5,209.5 412.5,209.5 415.5,209.5C 415.5,211.5 415.5,213.5 415.5,215.5C 408.157,213.01 402.99,215.343 400,222.5C 399.5,231.16 399.334,239.827 399.5,248.5C 397.5,248.5 395.5,248.5 393.5,248.5C 393.5,235.833 393.5,223.167 393.5,210.5C 395.5,210.5 397.5,210.5 399.5,210.5C 399.34,212.199 399.506,213.866 400,215.5C 401.872,213.153 404.039,211.153 406.5,209.5 Z"/></g>
<g><path style="opacity:1" fill="#f1f2f2" d="M 455.5,209.5 C 461.028,209 466.362,209.667 471.5,211.5C 472.833,213.5 472.833,215.5 471.5,217.5C 464.056,212.876 457.222,213.543 451,219.5C 447.097,227.583 447.931,235.083 453.5,242C 459.522,245.218 465.522,245.052 471.5,241.5C 472.466,243.396 472.799,245.396 472.5,247.5C 454.622,253.571 444.288,247.405 441.5,229C 441.454,218.909 446.12,212.409 455.5,209.5 Z"/></g>
<g><path style="opacity:1" fill="#ebeced" d="M 501.5,210.5 C 503.833,210.5 506.167,210.5 508.5,210.5C 508.334,219.839 508.5,229.173 509,238.5C 510.399,242.238 513.066,243.904 517,243.5C 520.735,243.799 523.735,242.466 526,239.5C 527.391,229.9 527.891,220.233 527.5,210.5C 529.833,210.5 532.167,210.5 534.5,210.5C 534.5,223.167 534.5,235.833 534.5,248.5C 532.167,248.5 529.833,248.5 527.5,248.5C 528.187,242.401 526.854,241.901 523.5,247C 512.427,252.377 505.261,249.21 502,237.5C 501.5,228.506 501.334,219.506 501.5,210.5 Z"/></g>
<g><path style="opacity:1" fill="#1e2f38" d="M 152.5,214.5 C 161.237,213.253 166.237,216.919 167.5,225.5C 160.167,225.5 152.833,225.5 145.5,225.5C 145.813,220.526 148.146,216.859 152.5,214.5 Z"/></g>
<g><path style="opacity:1" fill="#1d2e37" d="M 256.5,214.5 C 263.231,213.448 267.731,216.114 270,222.5C 271.465,229.537 270.298,236.037 266.5,242C 258.873,246.535 253.373,244.701 250,236.5C 249.149,230.747 249.483,225.08 251,219.5C 252.73,217.598 254.563,215.931 256.5,214.5 Z"/></g>
<g><path style="opacity:1" fill="#1f2f38" d="M 299.5,214.5 C 305.957,213.975 310.457,216.642 313,222.5C 313.667,226.833 313.667,231.167 313,235.5C 309.036,245.151 303.036,246.818 295,240.5C 289.209,230.368 290.709,221.701 299.5,214.5 Z"/></g>
<g><path style="opacity:1" fill="#1d2e37" d="M 560.5,214.5 C 567.496,213.906 571.996,216.906 574,223.5C 575.651,231.074 573.817,237.574 568.5,243C 560.926,245.962 556.092,243.462 554,235.5C 551.66,226.869 553.827,219.869 560.5,214.5 Z"/></g>
<g><path style="opacity:1" fill="#1f2f38" d="M 361.5,214.5 C 370.47,213.124 375.47,216.791 376.5,225.5C 369.167,225.5 361.833,225.5 354.5,225.5C 355.066,220.699 357.4,217.032 361.5,214.5 Z"/></g>
<g><path style="opacity:1" fill="#59656c" d="M 173.5,230.5 C 163.955,230.843 154.622,231.843 145.5,233.5C 144.596,232.791 144.263,231.791 144.5,230.5C 154.167,230.5 163.833,230.5 173.5,230.5 Z"/></g>
<g><path style="opacity:1" fill="#5b686e" d="M 382.5,222.5 C 383.477,225.287 383.81,228.287 383.5,231.5C 373.833,231.5 364.167,231.5 354.5,231.5C 363.652,230.506 372.985,230.173 382.5,230.5C 382.5,227.833 382.5,225.167 382.5,222.5 Z"/></g>
</svg>
